<svg id="Capa_1" enable-background="new 0 0 512.038 512.038" height="512" viewBox="0 0 512.038 512.038" width="512" xmlns="http://www.w3.org/2000/svg"><g><g><path d="m417.476 334.463c0 93.888-67.475 169-161.364 169-4.358 0-8.679.836-12.955.514-3.204-.242-6.383-.572-9.535-.988-5.105-.675-10.138-10.212-15.09-11.33-6.471-1.46-12.802 5.347-18.97 3.172-45.144-15.919-81.55-50.36-100.091-94.196-8.603-20.339-4.723-42.699-4.723-66.172 0-37.821 3.714-72.757 24.602-100.995 28.558-38.608 73.076-64.696 123.807-68.519 4.276-.322 8.596.514 12.955.514 93.888 0 161.364 75.111 161.364 169z" fill="#95c7f8"/><path d="m256.112 164.463c-4.359 0-8.678.165-12.955.488 87.836 6.619 157.045 79.982 157.045 169.512s-69.209 162.893-157.045 169.512c4.276.322 8.596.488 12.955.488 93.888 0 170-76.112 170-170s-76.112-170-170-170z" fill="#75b5f8"/><g fill="#ade4a4"><path d="m86.112 334.463c0 23.375 4.719 45.646 13.255 65.916 5.692 13.517 25.855 9.419 25.855-5.248v-18.403c0-17.636 9.396-33.937 24.657-42.777l59.522-34.478c10.284-5.957 16.615-16.941 16.615-28.825 0-11.655-6.091-22.462-16.061-28.498l-33.177-20.084c-19.208-11.627-44.066-6.643-57.42 11.407-20.891 28.236-33.246 63.168-33.246 100.99z"/><path d="m268.355 375.346-81.716-19.672c-8.148-1.962-15.987 4.214-15.987 12.595v50.651c0 4.581 1.82 8.974 5.059 12.214l20.061 20.061c2.429 2.43 3.794 5.725 3.794 9.16v34.464c10.888 3.839 22.281 6.604 34.057 8.161v-33.484c0-3.436 1.365-6.731 3.794-9.16l35.801-35.801c3.239-3.239 5.059-7.633 5.059-12.214v-24.38c.001-5.987-4.101-11.194-9.922-12.595z"/><path d="m417.476 334.463c0-20.332 5.061-39.828-1.485-57.901h-101.4c-17.361 0-31.434 14.074-31.434 31.434 0 17.361 14.074 31.434 31.434 31.434 15.595 0 28.237 12.642 28.237 28.237v48.636c0 27.723 35.655 39.348 51.759 16.783 19.848-27.81 22.889-61.851 22.889-98.623z"/></g><path d="m394.587 433.087c19.847-27.811 31.525-61.852 31.525-98.624 0-20.332-3.575-39.828-10.121-57.901h-25.915c6.547 18.073 10.127 37.567 10.127 57.901 0 41.255-14.704 79.07-39.146 108.511 11.242 4.377 25.078 1.956 33.53-9.887z" fill="#8bd5a7"/><path d="m313.446 124.306c29.968-51.905 2.508-115.787-57.427-115.787-3.746 0-7.404-.747-10.964-.259-53.391 7.318-84.558 67.385-56.464 116.046l56.427 97.735 2.34 3.053c3.849 6.667 13.471 6.667 17.32 0z" fill="#ea7bc1"/><path d="m256.019 7.519c-3.759 0-7.429.256-11 .747 53.368 7.34 84.516 67.39 56.427 116.04l-56.427 97.735 2.34 4.052c3.849 6.667 13.472 6.667 17.321 0l58.767-101.788c29.967-51.904-7.493-116.786-67.428-116.786z" fill="#ea5bb1"/><circle cx="256.019" cy="82.745" fill="#f9f6f9" r="39.547"/></g><g><path d="m256.036 129.772c25.941 0 47.047-21.105 47.047-47.047s-21.105-47.047-47.047-47.047-47.046 21.105-47.046 47.047 21.105 47.047 47.046 47.047zm0-79.093c17.671 0 32.047 14.376 32.047 32.047s-14.376 32.047-32.047 32.047c-17.67 0-32.046-14.376-32.046-32.047s14.377-32.047 32.046-32.047z"/><path d="m360.3 115.836c1.465 1.464 3.385 2.196 5.304 2.196s3.839-.732 5.304-2.196c18.256-18.257 18.256-47.962 0-66.219-2.93-2.928-7.678-2.928-10.607 0-2.929 2.93-2.929 7.678 0 10.608 12.408 12.407 12.408 32.597 0 45.004-2.93 2.929-2.93 7.677-.001 10.607z"/><path d="m392.026 129.764c1.465 1.464 3.385 2.196 5.304 2.196s3.839-.732 5.304-2.196c25.936-25.936 25.936-68.138 0-94.074-2.93-2.928-7.678-2.928-10.607 0-2.929 2.93-2.929 7.678 0 10.607 20.088 20.087 20.088 52.772 0 72.859-2.93 2.93-2.93 7.678-.001 10.608z"/><path d="m146.469 118.032c1.919 0 3.839-.732 5.304-2.196 2.929-2.93 2.929-7.678 0-10.607-12.408-12.407-12.408-32.597 0-45.004 2.929-2.93 2.929-7.678 0-10.608-2.93-2.928-7.678-2.928-10.607 0-18.256 18.257-18.256 47.962 0 66.219 1.464 1.464 3.384 2.196 5.303 2.196z"/><path d="m114.744 131.96c1.919 0 3.839-.732 5.304-2.196 2.929-2.93 2.929-7.678 0-10.607-20.088-20.087-20.088-52.772 0-72.859 2.929-2.93 2.929-7.678 0-10.607-2.93-2.928-7.678-2.928-10.607 0-25.936 25.937-25.936 68.138 0 94.074 1.465 1.462 3.385 2.195 5.303 2.195z"/><path d="m420.387 267.612c-17.877-43.913-51.784-78.235-95.475-96.646-5.327-2.245-10.785-4.233-16.302-5.953l21.349-36.977c15.43-26.724 15.43-58.634 0-85.357-15.428-26.724-43.063-42.679-73.923-42.679-30.858 0-58.493 15.955-73.922 42.679-15.43 26.725-15.43 58.634 0 85.358 2.07 3.588 6.659 4.815 10.245 2.745 3.587-2.071 4.816-6.658 2.745-10.245-12.718-22.028-12.718-48.33 0-70.358 12.719-22.028 35.497-35.179 60.932-35.179 25.437 0 48.215 13.151 60.933 35.18 12.718 22.027 12.718 48.33 0 70.357l-58.767 101.788c-.628 1.087-1.626 1.249-2.164 1.249-.54.001-1.538-.162-2.166-1.249l-42.73-74.013c-2.07-3.588-6.659-4.816-10.245-2.745-3.587 2.071-4.816 6.658-2.745 10.245l5.304 9.187c-46.415 14.409-85.032 47.216-106.556 90.806-1.834 3.714-.311 8.211 3.404 10.045 1.067.527 2.199.777 3.314.777 2.765 0 5.424-1.535 6.73-4.182 4.156-8.416 9.019-16.385 14.488-23.858.199-.212.391-.434.568-.674 11.131-15.045 31.556-19.109 47.508-9.452l33.177 20.084c7.677 4.647 12.445 13.108 12.445 22.082 0 9.178-4.933 17.735-12.874 22.335l-59.523 34.479c-17.517 10.146-28.397 29.024-28.397 49.267v18.402c0 4.525-3.669 5.618-4.793 5.845-1.12.229-4.903.642-6.65-3.508-.072-.172-.157-.335-.24-.498-13.555-32.462-16.712-69.366-6.824-105.311 1.099-3.994-1.248-8.122-5.242-9.221-3.996-1.092-8.122 1.25-9.221 5.242-11.327 41.177-7.326 85.155 11.267 123.835 18.758 39.023 51.086 69.783 91.027 86.613 22.438 9.455 45.739 13.93 68.686 13.929 69.289-.004 135.26-40.82 163.81-108.576 18.409-43.689 18.703-91.936.827-135.848zm-194.246 201.865v24.802c-6.381-1.193-12.743-2.781-19.057-4.779v-29.164c0-5.463-2.127-10.6-5.991-14.465l-20.061-20.061c-1.846-1.845-2.862-4.3-2.862-6.91v-50.65c0-2.304 1.303-3.674 2.079-4.285s2.416-1.559 4.651-1.019l81.718 19.673c2.459.592 4.177 2.772 4.177 5.303v24.379c0 2.61-1.017 5.066-2.862 6.91l-35.801 35.801c-3.863 3.864-5.991 9.001-5.991 14.465zm179.596-71.839c-4.881 11.583-10.957 22.304-18.023 32.084-6.503 8.16-15.85 8.878-22.617 6.71-7.131-2.283-14.751-8.775-14.751-20.147v-48.637c0-19.706-16.031-35.737-35.737-35.737-13.197 0-23.935-10.736-23.935-23.934s10.737-23.935 23.935-23.935h20.044c4.143 0 7.5-3.357 7.5-7.5s-3.357-7.5-7.5-7.5h-20.044c-21.469 0-38.935 17.466-38.935 38.935 0 21.468 17.466 38.934 38.935 38.934 11.435 0 20.737 9.303 20.737 20.737v48.637c0 16.019 9.882 29.534 25.176 34.432 2.475.793 4.965 1.312 7.44 1.579-30.193 28.63-70.534 44.744-112.192 44.742-4.863 0-9.744-.23-14.629-.675v-26.886c0-1.457.567-2.827 1.599-3.857l35.801-35.801c4.679-4.679 7.255-10.9 7.255-17.518v-24.379c0-9.489-6.442-17.667-15.666-19.887l-81.718-19.673c-6.127-1.473-12.49-.084-17.445 3.82-4.954 3.903-7.796 9.76-7.796 16.067v50.65c0 6.617 2.576 12.839 7.256 17.518l20.059 20.059c1.031 1.031 1.599 2.402 1.599 3.859v23.602c-33.28-14.234-59.654-38.606-76.724-68.18.185-.033.369-.061.555-.098 10.063-2.032 16.824-10.29 16.824-20.548v-18.402c0-14.91 8.015-28.814 20.915-36.287l59.523-34.479c12.557-7.272 20.356-20.805 20.356-35.315 0-14.188-7.54-27.566-19.678-34.914l-33.177-20.084c-8.426-5.1-17.729-7.5-26.903-7.406 16.758-13.549 36.227-23.784 57.387-29.872l29.718 51.475c3.164 5.479 8.83 8.749 15.156 8.748 6.326 0 11.991-3.271 15.154-8.749l29.706-51.453c6.159 1.781 12.262 3.919 18.189 6.417 38.586 16.259 68.832 46.078 85.613 84.254h-37.09c-4.142 0-7.5 3.357-7.5 7.5s3.358 7.5 7.5 7.5h42.836c12.23 37.222 10.653 77.139-4.708 113.594z"/></g></g></svg>